<?xml version="1.0" standalone="no"?>
<!DOCTYPE svg PUBLIC "-//W3C//DTD SVG 20010904//EN"
 "http://www.w3.org/TR/2001/REC-SVG-20010904/DTD/svg10.dtd">
<svg version="1.0" xmlns="http://www.w3.org/2000/svg"
 width="200.000000pt" height="200.000000pt" viewBox="0 0 200.000000 200.000000"
 preserveAspectRatio="xMidYMid meet">
<metadata>
Created by potrace 1.14, written by Peter Selinger 2001-2017
</metadata>
<g transform="translate(0.000000,200.000000) scale(0.100000,-0.100000)"
fill="#000000" stroke="none">
<path d="M917 1994 c-3 -3 -33 -6 -66 -6 -34 0 -64 -4 -67 -9 -3 -5 -14 -9
-24 -9 -10 0 -22 -9 -25 -20 -5 -17 -10 -18 -27 -9 -14 7 -48 9 -92 6 -63 -6
-73 -4 -93 15 -13 12 -23 16 -23 10 0 -16 -43 -15 -58 0 -8 8 -12 8 -12 1 0
-11 -116 -10 -128 1 -3 3 -11 1 -18 -5 -8 -7 -14 -7 -18 0 -4 6 -20 8 -35 5
-16 -3 -38 -1 -49 5 -17 9 -28 7 -55 -9 -19 -11 -42 -18 -51 -14 -11 4 -19 -2
-26 -20 -6 -16 -15 -24 -23 -20 -9 3 -17 -3 -20 -17 -7 -27 -1 -39 20 -39 13
0 15 -35 12 -302 -1 -167 -1 -312 0 -323 0 -11 -2 -40 -5 -63 -5 -36 -2 -50
15 -73 13 -18 21 -43 21 -69 0 -38 -1 -40 -21 -30 -19 11 -20 10 -9 -9 7 -14
7 -21 0 -21 -6 0 -10 -42 -10 -114 0 -112 1 -115 27 -134 16 -12 23 -24 19
-31 -5 -7 -9 -53 -10 -102 -1 -85 -2 -89 -24 -89 l-22 0 2 -202 3 -203 27 0
c14 -1 32 -6 40 -12 15 -13 98 -6 98 9 0 5 6 6 13 1 20 -13 127 -20 127 -8 0
5 11 11 25 11 16 1 25 -3 25 -12 0 -12 4 -12 20 -4 21 11 122 8 154 -6 14 -5
17 -4 12 4 -10 16 7 15 23 0 10 -11 11 -9 5 7 -7 19 -7 19 13 2 25 -22 33 -22
33 1 1 16 2 15 15 -2 12 -16 17 -17 30 -6 12 10 18 10 29 1 9 -8 28 -10 49 -6
32 6 37 4 51 -24 9 -17 25 -35 36 -41 17 -9 20 -8 20 9 0 25 40 31 91 15 25
-8 40 -9 47 -2 7 7 17 6 31 -2 21 -11 61 -5 71 11 8 12 173 14 178 1 2 -6 -7
-12 -20 -15 -21 -4 -22 -4 -2 -6 12 0 39 7 60 16 22 9 48 15 60 14 11 -1 42 5
69 14 33 12 59 14 84 9 20 -4 50 -7 67 -5 18 1 35 -2 39 -8 8 -14 112 -14 120
0 4 6 13 8 21 5 8 -3 14 1 14 8 0 8 -6 16 -12 19 -21 7 -2 18 39 24 31 4 53
-2 102 -27 35 -17 65 -29 68 -27 2 3 1 187 -4 408 l-8 404 -24 0 c-13 0 -26 6
-28 13 -3 7 4 12 17 12 20 0 22 4 16 35 -4 19 -3 35 1 35 10 0 11 96 1 106 -5
4 -8 22 -8 39 0 18 -6 38 -14 45 -8 6 -12 19 -9 27 5 12 3 14 -6 8 -27 -16
-31 19 -5 46 21 22 23 30 15 52 -10 25 -8 27 13 27 19 0 24 7 30 38 9 56 7
382 -3 425 -5 21 -5 39 0 43 5 3 9 25 9 49 0 41 -3 47 -37 68 -51 32 -87 39
-117 25 -22 -9 -29 -8 -47 8 -16 14 -23 15 -26 7 -3 -7 -15 -13 -28 -13 -13 0
-25 6 -28 13 -3 9 -7 9 -20 -1 -9 -8 -29 -12 -45 -11 -16 2 -37 -3 -46 -10
-13 -11 -27 -12 -79 -2 -150 30 -203 26 -213 -13 -4 -18 -15 -25 -42 -29 -32
-6 -39 -3 -69 33 l-34 39 -84 -2 c-46 -1 -87 -6 -91 -10 -12 -12 -24 -8 -24 8
0 15 -31 21 -43 9z m-475 -371 c111 -64 148 -93 148 -114 0 -16 5 -19 19 -14
12 3 23 0 28 -8 4 -7 15 -17 23 -20 8 -4 22 -11 30 -15 8 -5 28 -15 43 -23 52
-26 797 -531 797 -540 0 -5 -7 -9 -15 -9 -8 0 -15 -4 -15 -10 0 -5 19 -10 42
-10 34 0 58 -11 130 -57 l87 -58 -6 -55 c-6 -55 -54 -205 -89 -277 l-19 -38
-115 -3 -115 -3 -138 141 c-87 89 -137 148 -137 161 0 12 -8 23 -20 26 -11 3
-20 9 -20 14 0 5 -11 14 -25 19 -17 6 -25 17 -25 33 0 13 -11 34 -25 47 -14
13 -25 19 -25 13 0 -6 7 -16 15 -23 8 -7 15 -17 15 -23 0 -20 -43 29 -67 77
-15 30 -28 45 -32 37 -10 -16 -185 164 -178 183 4 9 -4 18 -21 24 -23 8 -491
487 -500 511 -4 11 87 49 120 50 15 1 55 -15 90 -36z m1116 -8 c52 -35 61 -48
42 -60 -16 -10 -12 -25 5 -19 19 7 19 16 -5 -113 -28 -146 -27 -143 -54 -112
-12 14 -29 28 -38 32 -10 3 -85 57 -169 118 l-152 113 139 37 c76 21 148 38
159 38 11 1 44 -15 73 -34z m-800 -1170 c11 -10 -14 -22 -116 -59 -71 -25
-137 -46 -146 -46 -9 0 -34 11 -55 25 -22 13 -41 20 -43 15 -5 -14 -138 90
-144 114 -3 13 13 61 42 126 25 58 55 125 65 149 l20 44 182 -178 c100 -98
188 -184 195 -190z"/>
</g>
</svg>
